<svg width="1957" height="363" viewBox="0 0 1957 363" fill="none" xmlns="http://www.w3.org/2000/svg">
<path d="M444.5 303.9C411.2 303.9 382.4 290.7 364.1 258.6L400.4 235.5C411.2 257.1 428.6 266.4 446.9 266.4C466.4 266.4 478.4 256.8 478.4 242.4C478.4 221.4 456.2 214.8 430.4 208.2C398 199.8 377.3 180.9 377.3 149.1C377.3 111.3 407 86.4 451.4 86.4C484.1 86.4 505.1 100.8 520.7 125.4L484.7 147.6C474.5 131.4 464.9 123.9 449.3 123.9C432.5 123.9 420.2 132.9 420.2 147C420.2 162.6 435.2 167.7 453.5 173.4C478.1 181.2 521.3 192 521.3 240C521.3 278.1 492.2 303.9 444.5 303.9ZM545.152 362.7C537.052 362.7 526.252 362.1 518.152 359.7L524.152 321C530.152 322.5 535.852 323.1 542.452 323.1C558.052 323.1 567.952 313.2 572.452 299.4L574.552 292.8L512.752 144H561.652L591.952 233.1C594.652 240.6 597.052 249.9 598.552 258C600.052 249.9 602.452 240.6 605.152 233.1L635.452 144H683.452L614.452 309.9C601.252 341.4 581.752 362.7 545.152 362.7ZM690.971 300V144H730.871V166.8C738.971 149.4 754.571 140.4 778.571 140.4C812.171 140.4 837.971 165.3 837.971 204.6V300H797.471V214.5C797.471 187.5 783.971 175.8 763.871 175.8C746.771 175.8 731.471 187.5 731.471 214.5V300H690.971ZM935 303.9C890.3 303.9 854.6 267.3 854.6 222C854.6 176.7 889.4 140.4 937.1 140.1C965.6 139.8 988.7 150.9 1001.9 169.2L970.7 194.7C963.5 183.9 951.5 177 937.7 177C911.9 177 895.1 197.7 895.1 222C895.1 246.3 912.8 267 938.6 267C954.2 267 964.4 259.2 972.5 248.4L1001.9 273.9C987.2 292.8 965.6 303.9 935 303.9ZM1017.92 300V144H1057.82V166.8C1065.92 149.4 1081.52 140.4 1105.52 140.4C1127.42 140.4 1146.02 150.9 1156.22 169.8C1166.72 150.9 1181.72 140.4 1209.02 140.4C1242.62 140.4 1268.42 165.3 1268.42 204.6V300H1227.92V214.5C1227.92 187.5 1215.02 175.8 1196.72 175.8C1177.82 175.8 1164.92 184.5 1164.92 214.5V300H1124.42V214.5C1124.42 187.5 1110.92 175.8 1090.82 175.8C1073.72 175.8 1058.42 187.5 1058.42 214.5V300H1017.92ZM1362.07 303.9C1319.17 303.9 1284.97 267.6 1284.97 222.6C1284.97 177.6 1319.17 140.7 1362.07 140.7C1389.07 140.7 1403.17 151.8 1411.57 168.6V144H1451.77V300H1412.47V274.5C1404.07 292.2 1389.97 303.9 1362.07 303.9ZM1325.47 222.3C1325.47 246 1342.87 267.3 1368.67 267.3C1395.37 267.3 1412.47 246.9 1412.47 222.6C1412.47 198.3 1395.37 177.3 1368.67 177.3C1342.87 177.3 1325.47 198 1325.47 222.3ZM1524.43 300L1459.33 144H1507.33L1538.53 233.1C1541.23 240.6 1543.63 249.9 1545.13 258C1546.63 249.9 1549.03 240.6 1551.73 233.1L1582.93 144H1630.03L1565.23 300H1524.43ZM1702.29 303.9C1653.99 303.9 1621.59 267.3 1621.59 222.3C1621.59 177.3 1655.49 140.1 1702.29 140.1C1749.09 140.1 1781.49 177.3 1781.49 222.3C1781.49 226.8 1781.19 231.6 1780.29 236.7H1663.59C1668.09 255 1681.89 267.9 1702.29 267.9C1719.69 267.9 1733.19 258.9 1740.39 246.9L1771.89 270.6C1759.29 290.1 1733.19 303.9 1702.29 303.9ZM1663.59 206.4H1740.69C1736.19 189 1721.49 174.9 1701.69 174.9C1682.49 174.9 1668.09 187.8 1663.59 206.4ZM1799.27 300V144H1839.17V166.8C1847.27 149.4 1862.87 140.4 1886.87 140.4C1920.47 140.4 1946.27 165.3 1946.27 204.6V300H1905.77V214.5C1905.77 187.5 1892.27 175.8 1872.17 175.8C1855.07 175.8 1839.77 187.5 1839.77 214.5V300H1799.27Z" fill="white"/>
<path d="M270.504 113.737L253.409 143.303L201.289 233.548C190.895 251.545 171.69 262.632 150.906 262.632H80.6434C73.0551 262.632 66.0428 266.678 62.2463 273.249L42.4637 307.485C73.3106 339.282 118.134 357.459 167.025 352.056C235.984 344.435 290.97 289.776 298.961 220.859C303.621 180.679 292.352 143.076 270.504 113.737Z" fill="url(#paint0_linear_2792_378)"/>
<path d="M257.61 98.5654C226.795 66.7683 181.992 48.5997 133.124 53.918C64.0316 61.4373 8.93554 116.257 1.01524 185.304C-3.59446 225.491 7.76554 262.978 29.5644 292.328L46.7269 262.632L98.7834 172.408C109.175 154.399 128.386 143.303 149.179 143.303H219.497C227.085 143.303 234.097 139.256 237.894 132.686L257.61 98.5654Z" fill="url(#paint1_linear_2792_378)"/>
<defs>
<linearGradient id="paint0_linear_2792_378" x1="42.4637" y1="233.369" x2="300.001" y2="233.369" gradientUnits="userSpaceOnUse">
<stop stop-color="#FF6822"/>
<stop offset="0.1105" stop-color="#FF781A"/>
<stop offset="0.3271" stop-color="#FF940F"/>
<stop offset="0.5469" stop-color="#FFA706"/>
<stop offset="0.7697" stop-color="#FFB301"/>
<stop offset="1" stop-color="#FFB700"/>
</linearGradient>
<linearGradient id="paint1_linear_2792_378" x1="3.62974e-05" y1="172.664" x2="257.61" y2="172.664" gradientUnits="userSpaceOnUse">
<stop stop-color="#FFB700"/>
<stop offset="0.2276" stop-color="#FFB301"/>
<stop offset="0.4517" stop-color="#FFA706"/>
<stop offset="0.6743" stop-color="#FF930F"/>
<stop offset="0.8949" stop-color="#FF771B"/>
<stop offset="1" stop-color="#FF6822"/>
</linearGradient>
</defs>
</svg>
