<svg width="300" height="300" viewBox="0 0 300 300" fill="none" xmlns="http://www.w3.org/2000/svg">
<path d="M270.504 60.7374L253.409 90.3027L201.289 180.548C190.895 198.545 171.69 209.632 150.906 209.632H80.6434C73.0551 209.632 66.0428 213.678 62.2463 220.249L42.4637 254.485C73.3106 286.282 118.134 304.459 167.025 299.056C235.984 291.435 290.97 236.776 298.961 167.859C303.621 127.679 292.352 90.0761 270.504 60.7374Z" fill="url(#paint0_linear_2792_367)"/>
<path d="M257.61 45.5654C226.795 13.7683 181.992 -4.40026 133.124 0.918037C64.0316 8.43734 8.93554 63.2572 1.01524 132.304C-3.59446 172.491 7.76554 209.978 29.5644 239.328L46.7269 209.632L98.7834 119.408C109.175 101.399 128.386 90.3028 149.179 90.3028H219.497C227.085 90.3028 234.097 86.2559 237.894 79.6857L257.61 45.5654Z" fill="url(#paint1_linear_2792_367)"/>
<defs>
<linearGradient id="paint0_linear_2792_367" x1="42.4637" y1="180.369" x2="300.001" y2="180.369" gradientUnits="userSpaceOnUse">
<stop stop-color="#FF6822"/>
<stop offset="0.1105" stop-color="#FF781A"/>
<stop offset="0.3271" stop-color="#FF940F"/>
<stop offset="0.5469" stop-color="#FFA706"/>
<stop offset="0.7697" stop-color="#FFB301"/>
<stop offset="1" stop-color="#FFB700"/>
</linearGradient>
<linearGradient id="paint1_linear_2792_367" x1="3.62974e-05" y1="119.664" x2="257.61" y2="119.664" gradientUnits="userSpaceOnUse">
<stop stop-color="#FFB700"/>
<stop offset="0.2276" stop-color="#FFB301"/>
<stop offset="0.4517" stop-color="#FFA706"/>
<stop offset="0.6743" stop-color="#FF930F"/>
<stop offset="0.8949" stop-color="#FF771B"/>
<stop offset="1" stop-color="#FF6822"/>
</linearGradient>
</defs>
</svg>
